<svg id="Layer_1" data-name="Layer 1" xmlns="http://www.w3.org/2000/svg" xmlns:xlink="http://www.w3.org/1999/xlink" viewBox="0 0 766.72 629.15"><defs><style>.cls-1{fill:none;}.cls-2{clip-path:url(#clip-path);}.cls-3{fill:#65b061;}</style><clipPath id="clip-path" transform="translate(-17.28 -2.85)"><rect class="cls-1" x="17.28" y="2.85" width="766.72" height="629.15"/></clipPath></defs><title>Untitled-2</title><path d="M283.68,168.3l74.72,268H209Zm-42.79-62.44L80.58,629.57h73.31l37.88-136.45H375.23l38.58,136.45h73.31L326.83,105.86Z" transform="translate(-17.28 -2.85)"/><polygon points="693.41 105.44 570.29 569.52 447.51 105.44 374.2 105.44 527.49 629.15 613.43 629.15 766.72 105.44 693.41 105.44"/><g class="cls-2"><path class="cls-3" d="M353,39.55q-41.15,36.71-41.16,101.51,0,59.89,43.92,100.28t109.65,40.39q20.58,0,33.94-10.14t13.36-17.81q0-2.45-3.53-5.07a12.42,12.42,0,0,0-7.52-2.61q-3.69,0-4.91,2.46-6.75,13.52-31.33,13.51-16.89,0-28.11-19.81T416.89,173q-3.69-20.88-16.89-32.86t-31.64-12a55.37,55.37,0,0,0-36.24,12.9q0-56.82,35.32-87.69t101-30.87q71.26,0,115.18,53t43.92,138.74q0,71.6-36.39,141.67T488.76,480.69c-.64-.64-1.34-1.35-2.1-2.14q-4.36-4.51-11.42-12.32-44.92-47.9-78.93-78.85A506.65,506.65,0,0,0,355,353.07q-44.69-32.59-90.3-48.28a286.32,286.32,0,0,0-37.38-10.09,295.45,295.45,0,0,0-57.68-5.59q-3.16,0-6.17,0a314.93,314.93,0,0,0-35.45,2q-15.82,2-45.61,9.75l-3.69.31q-4.91.32-4.91,9t4.91,8.61h3.69q33.87,0,67.12,15.91,4.15,2,8.28,4.21a238.4,238.4,0,0,1,28,18.36q9.24,6.86,19.74,15.49,22.39,18.4,50.53,44.85,5.78,5.43,11.79,11.19Q347.48,505,399.08,539.07c-90.5,46.3-252.59,74.08-373.2,74.08H22.19q-4.91,0-4.91,8.6t4.91,8.59h3.69c128.59,0,296.62-29.62,391-79.61q121.94,75,278.88,75h3.69q4.91,0,4.91-8.6t-4.91-8.6h-3.69q-44.84,0-88.15-24.27t-106-89.42q69.42-57.16,107.5-130.75t38.09-149.81q0-93.73-49.61-152.57T468.49,2.85Q394.17,2.85,353,39.55" transform="translate(-17.28 -2.85)"/></g><polygon points="209.15 369.87 266.4 165.46 223.61 103.02 124.94 425.43 191.69 433.45 209.15 369.87"/><polygon points="63.3 626.73 136.61 626.73 191.69 433.45 124.94 425.43 63.3 626.73"/><polygon points="309.55 103.02 363.1 277.06 266.4 165.46 223.61 103.02 309.55 103.02"/><polygon points="693.41 105.44 570.29 569.52 487.71 493.32 527.49 629.15 613.43 629.15 766.72 105.44 693.41 105.44"/><polyline points="487.71 493.32 466.65 421.67 523.91 395.64 570.28 569.52"/></svg>