<svg id="Layer_1" data-name="Layer 1" xmlns="http://www.w3.org/2000/svg" viewBox="0 0 852.09 699.2"><defs><style>.cls-1{fill:#020201;}.cls-2{fill:#272425;}.cls-3{fill:#60a653;}.cls-4{fill:#050605;}</style></defs><title>logo tadzio</title><path class="cls-1" d="M88.35,716.42h81.47l42.1-151.65H415.81l42.88,151.65h81.47L362,134.4H266.51ZM397.1,501.62H231l83-297.83Z" transform="translate(-18 -19.91)"/><polygon class="cls-2" points="497.34 117.18 415.87 117.18 586.22 699.21 681.73 699.21 852.09 117.18 770.61 117.18 633.78 632.93 497.34 117.18"/><path class="cls-3" d="M391.11,60.7q-45.73,40.8-45.74,112.81,0,66.56,48.81,111.45T516,329.84q22.88,0,37.71-11.26t14.85-19.8q0-2.72-3.93-5.63a13.81,13.81,0,0,0-8.36-2.9q-4.1,0-5.46,2.73-7.51,15-34.82,15-18.77,0-31.24-22t-22.7-77q-4.1-23.2-18.77-36.52t-35.16-13.31a61.54,61.54,0,0,0-40.28,14.34q0-63.14,39.25-97.45t112.3-34.31q79.2,0,128,58.92t48.81,154.19q0,79.58-40.45,157.44T542,551q-1.06-1.06-2.33-2.38-4.84-5-12.69-13.69Q477,481.66,439.24,447.27q-25.78-23.46-45.92-38.14Q343.66,372.9,293,355.47a318.12,318.12,0,0,0-41.54-11.21,328.41,328.41,0,0,0-64.1-6.21q-3.51,0-6.85,0a351.6,351.6,0,0,0-39.39,2.2q-17.58,2.24-50.69,10.83l-4.1.34q-5.46.36-5.46,10T86.3,371h4.1Q128,371,165,388.67q4.61,2.2,9.2,4.68a265,265,0,0,1,31.17,20.4q10.26,7.62,21.94,17.21,24.88,20.44,56.16,49.84,6.42,6,13.1,12.44,88.41,84.7,145.75,122.6C341.73,667.3,161.59,698.17,27.56,698.17h-4.1q-5.46,0-5.46,9.56t5.46,9.56h4.1c142.91,0,329.65-32.92,434.55-88.47Q597.62,712.14,772,712.14h4.1q5.46,0,5.46-9.56T776.14,693H772q-49.84,0-98-27T556.32,566.67q77.15-63.52,119.47-145.31t42.33-166.48q0-104.16-55.13-169.56T519.45,19.91q-82.6,0-128.34,40.79" transform="translate(-18 -19.91)"/><polygon class="cls-1" points="232.44 411.05 296.06 183.88 248.5 114.49 138.85 472.8 213.03 481.71 232.44 411.05"/><polygon class="cls-4" points="70.35 696.51 138.85 472.8 213.03 481.71 151.83 696.51 70.35 696.51"/><polygon class="cls-1" points="344.02 114.49 403.53 307.91 296.06 183.88 248.5 114.49 344.02 114.49"/><polygon class="cls-2" points="586.22 699.21 681.73 699.21 852.09 117.18 770.61 117.18 633.78 632.93 542.01 548.25 586.22 699.21"/><polyline class="cls-2" points="542.01 548.25 522.85 484.61 587.93 455.68 633.78 632.93"/></svg>